<?xml version="1.0" encoding="utf-8"?>
<!-- Generator: Adobe Illustrator 24.1.1, SVG Export Plug-In . SVG Version: 6.00 Build 0)  -->
<svg version="1.1" id="Capa_1" xmlns="http://www.w3.org/2000/svg" xmlns:xlink="http://www.w3.org/1999/xlink" x="0px" y="0px"
	 viewBox="0 0 1080 1080" style="enable-background:new 0 0 1080 1080;" xml:space="preserve">
<style type="text/css">
	.st0{fill:#70E000;}
	.st1{fill:#560BAD;}
	.st2{fill:#001233;}
	.st3{fill:#FFFFFF;}
	.st4{fill:#4CC9F0;}
	.st5{fill:#480CA8;}
	.st6{fill:#9EF01A;}
</style>
<circle class="st0" cx="675.2" cy="182.97" r="35.88"/>
<g>
	<rect x="639.32" y="228.95" class="st0" width="71.75" height="199.7"/>
	<g>
		<path class="st0" d="M518.87,613.35c-97.82,0-178.8-72.47-190.69-165.85c-1.6-12.56,7.9-23.79,20.56-23.79l24.05,0
			c13.85,0,25.23,10.04,28.06,23.6c11.2,53.73,59.86,94.28,118.02,94.28c66.41,0,120.45-52.88,120.44-117.88h71.75
			C711.07,528.28,624.85,613.35,518.87,613.35z"/>
	</g>
</g>
<path class="st0" d="M430.6,339.43l156.02,101.2c15.59,10.11,19.71,30.48,9.22,45.49l0,0c-10.5,15.01-31.64,18.99-47.23,8.88
	L345.5,363.25c-15.59-10.11-19.71-30.48-9.22-45.49l0,0c10.5-15.01,31.64-18.99,47.23-8.88L430.6,339.43"/>
<path class="st0" d="M588.26,242.72L381.9,364.38c-16.03,9.45-36.98,4.6-46.79-10.84l0,0c-9.81-15.44-4.77-35.61,11.26-45.06
	l206.35-121.66c16.03-9.45,36.98-4.6,46.79,10.84l0,0C609.33,213.09,604.29,233.27,588.26,242.72z"/>
</svg>
